<?xml version="1.0" standalone="no"?>
<!DOCTYPE svg PUBLIC "-//W3C//DTD SVG 20010904//EN"
 "http://www.w3.org/TR/2001/REC-SVG-20010904/DTD/svg10.dtd">
<svg version="1.0" xmlns="http://www.w3.org/2000/svg"
 width="120.000000pt" height="45.000000pt" viewBox="0 0 120.000000 45.000000"
 preserveAspectRatio="xMidYMid meet">

<g transform="translate(0.000000,45.000000) scale(0.100000,-0.100000)"
fill="#000000" stroke="none">
<path d="M155 384 c-55 -43 -125 -145 -125 -185 0 -66 62 -77 140 -24 29 19
53 35 54 35 2 0 2 -10 2 -21 -1 -12 4 -24 10 -26 10 -3 52 124 43 131 -2 1
-39 1 -81 -2 -85 -5 -97 -22 -16 -22 l51 0 -24 -26 c-13 -15 -42 -40 -63 -55
-125 -92 -111 52 16 166 33 30 59 45 72 43 30 -4 33 -36 4 -47 l-23 -8 23 -7
c47 -15 71 40 30 68 -34 24 -61 19 -113 -20z"/>
<path d="M330 348 c-40 -67 -37 -153 7 -188 34 -26 59 -25 139 5 36 14 67 25
69 25 1 0 0 -11 -2 -25 -4 -19 0 -25 21 -31 17 -4 35 0 52 11 21 14 33 15 75
6 53 -12 131 0 240 37 54 18 58 18 79 2 31 -24 21 -58 -31 -105 -31 -28 -38
-39 -28 -45 27 -17 92 46 104 102 7 29 3 35 -35 68 -37 32 -41 39 -32 57 6 11
19 24 28 27 16 6 16 8 3 22 -20 20 -44 9 -59 -26 -9 -21 -9 -34 -1 -49 13 -23
5 -26 -137 -56 -122 -25 -167 -20 -183 23 -11 29 -23 28 -172 -19 -88 -28
-101 -30 -114 -16 -13 13 -11 21 20 68 43 67 52 102 31 123 -25 25 -52 19 -74
-16z m60 0 c-1 -19 -36 -95 -49 -102 -15 -10 -3 51 18 87 16 28 31 36 31 15z
m220 -163 c-7 -8 -17 -15 -22 -15 -6 0 -5 7 2 15 7 8 17 15 22 15 6 0 5 -7 -2
-15z"/>
<path d="M1060 311 c-24 -46 -9 -84 49 -122 l25 -15 -21 -21 c-11 -11 -27 -23
-34 -26 -12 -5 -11 -7 1 -16 11 -7 23 -5 45 9 46 29 43 48 -11 95 l-48 42 28
26 c15 14 25 31 21 36 -10 18 -44 12 -55 -8z"/>
<path d="M127 93 c-4 -3 -7 -17 -7 -30 0 -27 34 -33 44 -7 10 25 -20 55 -37
37z m23 -37 c-14 -14 -24 0 -16 21 6 15 8 15 16 3 6 -9 5 -19 0 -24z"/>
<path d="M357 93 c-10 -9 -9 -53 1 -53 4 0 8 10 9 22 1 11 8 25 15 29 10 7 9
9 -3 9 -9 0 -19 -3 -22 -7z"/>
<path d="M580 85 c-16 -19 -6 -45 17 -45 15 0 15 2 -3 15 -19 15 -19 15 0 30
11 8 15 15 9 15 -6 0 -16 -7 -23 -15z"/>
<path d="M812 88 c-14 -14 -16 -34 -4 -42 5 -3 8 4 8 14 -1 11 4 19 9 19 6 0
10 -9 9 -19 0 -11 3 -20 8 -20 13 0 6 53 -7 57 -6 2 -16 -2 -23 -9z"/>
<path d="M242 71 c2 -7 7 -12 11 -12 12 1 9 15 -3 20 -7 2 -11 -2 -8 -8z"/>
<path d="M465 71 c-6 -11 9 -23 19 -14 9 9 7 23 -3 23 -6 0 -12 -4 -16 -9z"/>
<path d="M705 71 c-6 -11 9 -23 19 -14 9 9 7 23 -3 23 -6 0 -12 -4 -16 -9z"/>
</g>
</svg>
